<svg width="23" height="23" viewBox="0 0 23 23" fill="none" xmlns="http://www.w3.org/2000/svg">
<g clip-path="url(#clip0_121_895)">
<path d="M16.4121 1.625H6.78711C5.64802 1.625 4.72461 2.54841 4.72461 3.6875V18.8125C4.72461 19.9516 5.64802 20.875 6.78711 20.875H16.4121C17.5512 20.875 18.4746 19.9516 18.4746 18.8125V3.6875C18.4746 2.54841 17.5512 1.625 16.4121 1.625Z" stroke="#001737" stroke-width="1.375" stroke-linejoin="round"/>
<path d="M9.53711 3.6875H13.6621" stroke="#001737" stroke-width="1.375" stroke-linecap="round" stroke-linejoin="round"/>
<path d="M14.9297 12.4752C14.7675 12.3025 14.5711 12.1654 14.353 12.0729C14.1349 11.9803 13.8999 11.9343 13.663 11.9377C13.1645 11.9377 12.7138 12.1272 12.3937 12.4718C12.0736 12.8164 11.9124 13.2933 11.9494 13.8038C12.0229 14.8127 12.7916 15.633 13.663 15.633C14.5344 15.633 15.3018 14.8127 15.3761 13.8047C15.414 13.2985 15.255 12.8263 14.9297 12.4752ZM16.5715 19.5002H10.7544C10.6787 19.5014 10.6036 19.486 10.5345 19.455C10.4654 19.424 10.4039 19.3783 10.3544 19.321C10.3007 19.2567 10.2622 19.1811 10.2416 19.0999C10.2211 19.0187 10.2191 18.9339 10.2358 18.8518C10.3754 18.0972 10.8107 17.4635 11.4948 17.0187C12.1024 16.6238 12.8724 16.4064 13.663 16.4064C14.4536 16.4064 15.2236 16.6238 15.8312 17.0187C16.5153 17.4635 16.9505 18.0972 17.0902 18.8518C17.1069 18.9339 17.1049 19.0187 17.0843 19.0999C17.0638 19.1811 17.0253 19.2567 16.9716 19.321C16.9221 19.3783 16.8606 19.424 16.7915 19.455C16.7223 19.486 16.6473 19.5014 16.5715 19.5002Z" fill="#001737"/>
</g>
<defs>
<clipPath id="clip0_121_895">
<rect width="22" height="22" fill="white" transform="translate(0.599609 0.25)"/>
</clipPath>
</defs>
</svg>
