<svg width="23" height="23" viewBox="0 0 23 23" fill="none" xmlns="http://www.w3.org/2000/svg">
<g clip-path="url(#clip0_112_849)">
<path d="M9.47109 7.75828C9.47109 8.31687 9.47109 8.85828 9.64727 9.36531C7.79531 11.5395 2.90547 17.2845 2.45 17.7227C2.35948 17.804 2.28706 17.9033 2.23746 18.0144C2.18786 18.1254 2.16219 18.2456 2.16211 18.3673C2.16211 18.7325 2.38555 19.0848 2.57461 19.2825C2.8582 19.579 4.06992 20.7005 4.29336 20.4856C4.95508 19.8411 5.08828 19.6692 5.35898 19.4028C5.76719 19.0032 5.31602 18.1868 5.45781 17.8559C5.59961 17.5251 5.75 17.4606 5.99492 17.4091C6.23984 17.3575 6.67383 17.5337 7.01328 17.538C7.36992 17.5423 7.56328 17.3919 7.82969 17.1427C8.04453 16.945 8.19922 16.7602 8.20352 16.4723C8.21211 16.0856 7.65352 15.5743 8.07031 15.1661C8.48711 14.7579 9.08867 15.4325 9.53125 15.3809C9.97383 15.3294 10.5109 14.7149 10.5668 14.4528C10.6227 14.1907 10.0641 13.5161 10.15 13.1337C10.1801 13.0048 10.4422 12.704 10.6398 12.661C10.8375 12.618 11.7141 12.9575 11.9117 12.9145C12.1523 12.863 12.4316 12.6095 12.6594 12.4677C13.3254 12.7555 13.9312 12.8716 14.709 12.8716C17.6523 12.8716 20.0371 10.577 20.0371 7.74969C20.0371 4.92234 17.6523 2.6377 14.709 2.6377C11.7656 2.6377 9.47109 4.93094 9.47109 7.75828ZM17.2871 6.7627C17.2871 7.03464 17.2065 7.30049 17.0554 7.5266C16.9043 7.75272 16.6895 7.92896 16.4383 8.03303C16.1871 8.1371 15.9106 8.16433 15.6439 8.11128C15.3771 8.05822 15.1321 7.92726 14.9398 7.73497C14.7475 7.54267 14.6166 7.29767 14.5635 7.03094C14.5105 6.76422 14.5377 6.48775 14.6418 6.23651C14.7458 5.98526 14.9221 5.77051 15.1482 5.61942C15.3743 5.46834 15.6402 5.3877 15.9121 5.3877C16.2768 5.3877 16.6265 5.53256 16.8844 5.79042C17.1422 6.04829 17.2871 6.39802 17.2871 6.7627Z" stroke="#202326" stroke-width="1.375" stroke-linejoin="round"/>
</g>
<defs>
<clipPath id="clip0_112_849">
<rect width="22" height="22" fill="white" transform="translate(0.0996094 0.575195)"/>
</clipPath>
</defs>
</svg>
