<svg width="23" height="23" viewBox="0 0 23 23" fill="none" xmlns="http://www.w3.org/2000/svg">
<g clip-path="url(#clip0_112_804)">
<path d="M17.9746 3.7627H4.22461C3.08552 3.7627 2.16211 4.68611 2.16211 5.8252V18.2002C2.16211 19.3393 3.08552 20.2627 4.22461 20.2627H17.9746C19.1137 20.2627 20.0371 19.3393 20.0371 18.2002V5.8252C20.0371 4.68611 19.1137 3.7627 17.9746 3.7627Z" stroke="#202326" stroke-width="1.375" stroke-linejoin="round"/>
<path d="M5.59961 2.3877V3.7627M16.5996 2.3877V3.7627M20.0371 7.2002H2.16211M13.1621 11.4971L15.0278 10.1221H15.2246V17.3408M6.71594 10.7636C6.90199 10.4491 7.42277 9.9502 8.3423 9.9502C9.42941 9.9502 10.4001 10.5423 10.4001 11.6646C10.4025 11.8819 10.3615 12.0975 10.2794 12.2987C10.1972 12.4998 10.0757 12.6825 9.92184 12.836C9.45219 13.3168 8.73547 13.5007 8.34402 13.5007C8.7866 13.5007 9.59828 13.7087 10.1294 14.2518C10.4697 14.5986 10.627 15.0875 10.627 15.6298C10.627 16.8278 9.6159 17.5127 8.38742 17.5127C7.34887 17.5127 6.71164 16.7577 6.50195 16.4024" stroke="#202326" stroke-width="1.375" stroke-linecap="round" stroke-linejoin="round"/>
</g>
<defs>
<clipPath id="clip0_112_804">
<rect width="22" height="22" fill="white" transform="translate(0.0996094 0.325195)"/>
</clipPath>
</defs>
</svg>
