<svg width="23" height="23" viewBox="0 0 23 23" fill="none" xmlns="http://www.w3.org/2000/svg">
<g clip-path="url(#clip0_112_860)">
<path d="M11.3705 8.33852C10.8063 8.28279 10.2386 8.40283 9.74522 8.68219C9.25185 8.96155 8.85688 9.38658 8.6144 9.89909C8.37192 10.4116 8.29378 10.9865 8.39067 11.5452C8.48756 12.1038 8.75476 12.6188 9.15567 13.0197C9.55658 13.4207 10.0716 13.6879 10.6303 13.7847C11.1889 13.8816 11.7638 13.8035 12.2763 13.561C12.7888 13.3185 13.2139 12.9236 13.4932 12.4302C13.7726 11.9368 13.8926 11.3692 13.8369 10.8049C13.7734 10.1724 13.4931 9.58132 13.0436 9.13181C12.5941 8.68231 12.003 8.40204 11.3705 8.33852ZM17.992 11.0752C17.9902 11.3741 17.9683 11.6726 17.9262 11.9685L19.8689 13.4922C19.9534 13.5623 20.0104 13.6601 20.0297 13.7683C20.049 13.8765 20.0293 13.988 19.9741 14.083L18.1364 17.2627C18.0805 17.3568 17.9933 17.4282 17.89 17.4643C17.7867 17.5003 17.674 17.4988 17.5717 17.4599L15.6424 16.683C15.5361 16.6407 15.4208 16.6254 15.3071 16.6385C15.1933 16.6516 15.0846 16.6928 14.9906 16.7582C14.6962 16.961 14.3868 17.1411 14.0651 17.2971C13.9639 17.3462 13.8764 17.4195 13.8104 17.5105C13.7443 17.6015 13.7016 17.7073 13.6861 17.8187L13.3969 19.8765C13.3779 19.9852 13.3218 20.0839 13.2381 20.1557C13.1544 20.2276 13.0483 20.2682 12.938 20.2705H9.26245C9.15397 20.2686 9.04937 20.2299 8.96587 20.1606C8.88238 20.0913 8.82497 19.9956 8.80311 19.8894L8.51436 17.8346C8.49815 17.722 8.45436 17.6151 8.38689 17.5235C8.31942 17.4319 8.23037 17.3584 8.12764 17.3095C7.80633 17.1544 7.49797 16.9738 7.20553 16.7694C7.1119 16.7043 7.00353 16.6634 6.89019 16.6506C6.77685 16.6378 6.6621 16.6534 6.55628 16.6959L4.62741 17.4724C4.52519 17.5113 4.41251 17.5129 4.30923 17.4769C4.20594 17.4409 4.11868 17.3696 4.0628 17.2756L2.22503 14.0959C2.16977 14.0009 2.15003 13.8894 2.16931 13.7812C2.18858 13.673 2.24563 13.5751 2.3303 13.5051L3.97213 12.216C4.06208 12.1446 4.13278 12.0519 4.1778 11.9462C4.22282 11.8406 4.24075 11.7254 4.22995 11.611C4.21448 11.4318 4.20502 11.2531 4.20502 11.0739C4.20502 10.8947 4.21405 10.7186 4.22995 10.5432C4.23957 10.4296 4.22076 10.3154 4.17523 10.2108C4.1297 10.1062 4.05887 10.0146 3.96913 9.94426L2.32815 8.65519C2.24486 8.58477 2.18901 8.48727 2.17039 8.3798C2.15177 8.27232 2.17157 8.16173 2.22631 8.06738L4.06409 4.8877C4.1199 4.79359 4.20714 4.7222 4.31043 4.68612C4.41372 4.65004 4.52643 4.65158 4.6287 4.69047L6.55799 5.46734C6.66439 5.5097 6.77963 5.52501 6.89339 5.51189C7.00715 5.49876 7.11588 5.45762 7.20983 5.39215C7.50427 5.18939 7.81368 5.00926 8.13538 4.85332C8.23652 4.80416 8.32399 4.73086 8.39009 4.63989C8.45619 4.54891 8.49887 4.44306 8.51436 4.33168L8.80354 2.27391C8.82253 2.16523 8.87868 2.06652 8.96238 1.99466C9.04608 1.92279 9.15215 1.88222 9.26245 1.87988H12.938C13.0465 1.88176 13.1511 1.92053 13.2346 1.98981C13.3181 2.05909 13.3755 2.15475 13.3973 2.26102L13.6861 4.31578C13.7023 4.42839 13.7461 4.53524 13.8135 4.62685C13.881 4.71845 13.9701 4.79197 14.0728 4.84086C14.3941 4.99596 14.7025 5.17658 14.9949 5.38098C15.0885 5.44612 15.1969 5.48695 15.3103 5.49978C15.4236 5.5126 15.5383 5.49703 15.6442 5.45445L17.573 4.67801C17.6753 4.63908 17.7879 4.63748 17.8912 4.67348C17.9945 4.70948 18.0818 4.78077 18.1376 4.8748L19.9754 8.05449C20.0307 8.14949 20.0504 8.26102 20.0311 8.36921C20.0119 8.4774 19.9548 8.57524 19.8701 8.64531L18.2283 9.93437C18.138 10.0055 18.0669 10.0982 18.0215 10.2038C17.9761 10.3095 17.9578 10.4249 17.9683 10.5394C17.9825 10.7173 17.992 10.896 17.992 11.0752Z" stroke="#202326" stroke-width="1.375" stroke-linecap="round" stroke-linejoin="round"/>
</g>
<defs>
<clipPath id="clip0_112_860">
<rect width="22" height="22" fill="white" transform="translate(0.0996094 0.0751953)"/>
</clipPath>
</defs>
</svg>
