<svg width="23" height="23" viewBox="0 0 23 23" fill="none" xmlns="http://www.w3.org/2000/svg">
<path d="M4.36852 10.6736L10.8493 4.19273C13.0035 2.04773 16.4777 2.04773 18.6318 4.19273C20.7768 6.33773 20.7768 9.82107 18.6318 11.9752L12.151 18.4561C9.99685 20.6011 6.51352 20.6011 4.36852 18.4561C2.22352 16.3019 2.22352 12.8277 4.36852 10.6736ZM5.67018 11.9752C4.70768 12.9286 4.38685 14.2944 4.71685 15.5136L10.2077 10.0319L14.0943 13.9186L17.3302 10.6736C18.7693 9.24357 18.7693 6.9244 17.3302 5.4944C15.9002 4.05523 13.581 4.05523 12.151 5.4944L5.67018 11.9752Z" fill="#202326"/>
</svg>
