<svg width="23" height="23" viewBox="0 0 23 23" fill="none" xmlns="http://www.w3.org/2000/svg">
<path d="M10.7207 14.5647L9.41907 13.2722L10.7207 11.9706L12.0132 13.2722L13.3057 11.9706L12.0132 10.6781L13.3057 9.38557L14.6074 10.6781L15.8999 9.38557L13.3057 6.79141L6.82491 13.2722L9.41907 15.8664L10.7207 14.5647ZM3.32324 18.0664L6.18324 15.2156L4.23991 13.2722L13.3057 4.19724L15.2582 6.14974L16.5416 4.84807L15.2582 3.54641L16.5416 2.25391L20.4374 6.14974L19.1449 7.43307L17.8432 6.14974L16.5416 7.43307L18.4941 9.38557L9.41907 18.4514L7.47574 16.5081L3.32324 20.6697V18.0664Z" fill="#202326"/>
</svg>
