<svg width="23" height="23" viewBox="0 0 23 23" fill="none" xmlns="http://www.w3.org/2000/svg">
<path d="M5.08333 17.4914V4.65804H11.5V11.0747H17.9167V11.9914C18.5583 11.9914 19.1725 12.1105 19.75 12.3122V8.32471L14.25 2.82471H5.08333C4.06583 2.82471 3.25 3.64054 3.25 4.65804V17.4914C3.25 18.4997 4.06583 19.3247 5.08333 19.3247H12.7375C12.5358 18.7472 12.4167 18.133 12.4167 17.4914H5.08333ZM13.3333 4.19971L18.375 9.24137H13.3333V4.19971ZM21.5833 16.5747V18.408H18.8333V21.158H17V18.408H14.25V16.5747H17V13.8247H18.8333V16.5747H21.5833Z" fill="#202326"/>
</svg>
