<svg width="15" height="15" viewBox="0 0 15 15" fill="none" xmlns="http://www.w3.org/2000/svg">
<g clip-path="url(#clip0_112_754)">
<path d="M13.8809 7.75C13.8809 11.4952 10.8448 14.5312 7.09961 14.5312C3.35442 14.5312 0.318359 11.4952 0.318359 7.75C0.318359 4.00481 3.35442 0.96875 7.09961 0.96875C10.8448 0.96875 13.8809 4.00481 13.8809 7.75ZM6.31523 11.3406L11.3465 6.30937C11.5173 6.13852 11.5173 5.8615 11.3465 5.69066L10.7278 5.07195C10.5569 4.90108 10.2799 4.90108 10.109 5.07195L6.00586 9.1751L4.09018 7.25943C3.91934 7.08858 3.64232 7.08858 3.47145 7.25943L2.85274 7.87813C2.6819 8.04898 2.6819 8.326 2.85274 8.49684L5.69649 11.3406C5.86736 11.5115 6.14436 11.5115 6.31523 11.3406Z" fill="#10B759"/>
</g>
<defs>
<clipPath id="clip0_112_754">
<rect width="14" height="14" fill="white" transform="translate(0.0996094 0.75)"/>
</clipPath>
</defs>
</svg>
