<svg width="23" height="23" viewBox="0 0 23 23" fill="none" xmlns="http://www.w3.org/2000/svg">
<g clip-path="url(#clip0_112_833)">
<path d="M19.4788 16.771C18.7964 16.0835 17.1438 15.0802 16.342 14.6758C15.2979 14.1499 15.212 14.1069 14.3913 14.7166C13.8438 15.1236 13.4799 15.4871 12.8392 15.3504C12.1986 15.2138 10.8064 14.4434 9.58736 13.2282C8.36833 12.0131 7.55321 10.5805 7.41614 9.94196C7.27907 9.30344 7.64861 8.94379 8.05165 8.39508C8.6197 7.62165 8.57673 7.49274 8.09118 6.4486C7.71263 5.63649 6.68009 3.99938 5.99001 3.32047C5.25181 2.59129 5.25181 2.7202 4.77614 2.91786C4.3889 3.08079 4.01739 3.27884 3.66626 3.50954C2.97876 3.96629 2.5972 4.34571 2.33036 4.9159C2.06353 5.4861 1.94364 6.82286 3.32165 9.32622C4.69966 11.8296 5.66646 13.1096 7.66751 15.1051C9.66857 17.1006 11.2073 18.1735 13.4567 19.435C16.2393 20.9935 17.3067 20.6897 17.8786 20.4233C18.4505 20.1569 18.8317 19.7788 19.2893 19.0913C19.5206 18.7408 19.7191 18.3697 19.8822 17.9827C20.0803 17.5088 20.2092 17.5088 19.4788 16.771Z" stroke="#202326" stroke-width="1.375" stroke-miterlimit="10"/>
</g>
<defs>
<clipPath id="clip0_112_833">
<rect width="22" height="22" fill="white" transform="translate(0.0996094 0.700195)"/>
</clipPath>
</defs>
</svg>
