<svg width="23" height="23" viewBox="0 0 23 23" fill="none" xmlns="http://www.w3.org/2000/svg">
<g clip-path="url(#clip0_160_165)">
<path d="M19.75 10.2597V4.65885C19.75 3.65052 18.9342 2.82552 17.9167 2.82552H14.085C13.7 1.76219 12.6917 0.992188 11.5 0.992188C10.3083 0.992188 9.3 1.76219 8.915 2.82552H5.08333C4.075 2.82552 3.25 3.65052 3.25 4.65885V17.4922C3.25 18.5097 4.075 19.3255 5.08333 19.3255H10.6842C11.8392 20.4622 13.4158 21.1589 15.1667 21.1589C18.7142 21.1589 21.5833 18.2897 21.5833 14.7422C21.5833 12.9914 20.8867 11.4147 19.75 10.2597ZM11.5 2.82552C12.0042 2.82552 12.4167 3.23802 12.4167 3.74219C12.4167 4.24635 12.0042 4.65885 11.5 4.65885C10.9958 4.65885 10.5833 4.24635 10.5833 3.74219C10.5833 3.23802 10.9958 2.82552 11.5 2.82552ZM5.08333 17.4922V4.65885H6.91667V6.49219H16.0833V4.65885H17.9167V8.94885C17.0825 8.55469 16.1567 8.32552 15.1667 8.32552H6.91667V10.1589H10.675C10.125 10.6814 9.70333 11.3047 9.37333 11.9922H6.91667V13.8255H8.82333C8.7775 14.128 8.75 14.4305 8.75 14.7422C8.75 15.7322 8.97917 16.658 9.37333 17.4922H5.08333ZM15.1667 19.3255C12.6367 19.3255 10.5833 17.2722 10.5833 14.7422C10.5833 12.2122 12.6367 10.1589 15.1667 10.1589C17.6967 10.1589 19.75 12.2122 19.75 14.7422C19.75 17.2722 17.6967 19.3255 15.1667 19.3255ZM15.625 14.9714L18.2467 16.5205L17.5592 17.6389L14.25 15.6589V11.0755H15.625V14.9714Z" fill="#202326"/>
</g>
<defs>
<clipPath id="clip0_160_165">
<rect width="22" height="22" fill="white" transform="translate(0.5 0.0751953)"/>
</clipPath>
</defs>
</svg>
